<svg xmlns="http://www.w3.org/2000/svg" xml:space="preserve" width="500" height="500" viewBox="0 0 132.29 132.29"><g fill="#fff"><path d="m60.123 91.341 3.814-15.724s-20.29-22.872-48.261-31.418c0 0 43.963 27.21 44.155 32.99 0 0-.705 12.191.293 14.153z"/><path d="m41.174 58.63 14.91 12.387s-22.972 10.334-14.91-12.388"/><path d="m526.14 432.04 10.105 8.196-1.467 27.12 18.809 16.418 28.21-1.179-25.572-3.368-12.724-13.332.811-23.523 2.688-2.71z" style="paint-order:fill markers stroke" transform="rotate(10.062 1194.104 -1257.02)scale(.51757 .54318)"/></g><path fill="#fff" d="M24.096 15.678s-2.479 9.09-.162 15.23c-.074.29-2.814-2.482-3.48-6.312 0 0 .871 11.428 5.766 15.53 0 0 33.872 23.557 40.916 32.413-3.584-5.173-16.86-23.845-25.953-30.065 0 0 15.682 9.286 20.716 18.272 0 0-5.18-10.119-10.43-16.205-.285-.446-.781-.965-1.444-1.55-5.583-3.533-11.946-6.846-11.946-6.846-6.187-3.81-12.984-11.668-12.984-11.668 3.005 3.37 9.776 7.974 15.334 11.477-8.16-5.845-17.544-13.335-16.334-20.277zm43.04 56.863c.593.855.921 1.341.921 1.341a9.6 9.6 0 0 0-.92-1.341m-39.74-38.668c2.38 3.846 10.455 10.11 10.455 10.11.7.745 2.804 3.466 2.804 3.466-2.446-2.742-7.612-6.389-7.612-6.389-2.726-2.308-5.648-7.188-5.648-7.188zM63.687 75.339l-2.513 10.317v3.678l5.025 11.197v-3.794l-3.504-7.955V86.14l1.772-7.413h1.732v-3.387z"/><path fill="#fff" d="m43.77 67.573-.001-.51.844.495.002 7.404 9.185 6.88.442.668-4.46-2.963-.615-.017-5.421-4.077z" style="paint-order:fill markers stroke" transform="translate(-136.282 -176.178)scale(3.5485)"/><g fill="#fff"><path d="M72.155 91.341 68.34 75.617s20.291-22.872 48.262-31.418c0 0-43.963 27.21-44.156 32.99 0 0 .705 12.191-.292 14.153z"/><path d="m91.103 58.63-14.91 12.387s22.973 10.334 14.91-12.388"/><path d="m526.14 432.04 10.105 8.196-1.467 27.12 18.809 16.418 28.21-1.179-25.572-3.368-12.724-13.332.811-23.523 2.688-2.71z" style="paint-order:fill markers stroke" transform="rotate(169.939 176.794 -99.294)scale(.51757 -.54318)"/></g><path fill="#fff" d="M108.182 15.678c1.21 6.942-8.174 14.431-16.334 20.276 5.558-3.503 12.33-8.108 15.334-11.476 0 0-6.798 7.857-12.985 11.667 0 0-6.362 3.313-11.945 6.846-.663.585-1.16 1.104-1.444 1.55-5.25 6.086-10.43 16.205-10.43 16.205 5.034-8.985 20.716-18.272 20.716-18.272C82 48.694 68.725 67.366 65.14 72.54c7.047-8.855 40.916-32.414 40.916-32.414 4.894-4.1 5.766-15.528 5.766-15.528-.666 3.83-3.406 6.6-3.48 6.312 2.317-6.141-.162-15.231-.162-15.231zM65.14 72.54a9.6 9.6 0 0 0-.92 1.341s.327-.486.92-1.341m39.74-38.668s-2.921 4.88-5.647 7.187c0 0-5.166 3.647-7.612 6.39 0 0 2.104-2.722 2.805-3.467 0 0 8.074-6.263 10.455-10.11zM71.105 85.655l-2.513-10.317h-2.513v25.192l5.026-11.197z"/><path fill="#fff" d="m43.77 67.573-.001-.51.844.495.002 7.404 9.185 6.88.442.668-4.46-2.963-.615-.017-5.421-4.077z" style="paint-order:fill markers stroke" transform="matrix(-3.5485 0 0 3.5485 268.56 -176.178)"/><g fill="#fff" stroke-linecap="round" stroke-miterlimit="37.9"><path d="M681.12 390.14s-55.2-24.184-132.82 4.547c0 0 67.498-34.615 132.82-4.547" style="paint-order:fill markers stroke" transform="matrix(.39633 .02191 -.023 .41592 -168.03 -144.126)"/><path d="M674.51 390.27s-49.983-21.899-120.27 4.118c0 0 61.119-31.343 120.27-4.118" style="paint-order:fill markers stroke" transform="matrix(.39633 .02191 -.023 .41592 -168.03 -144.126)"/><path d="M671.22 390.86s-46.964-20.576-113 3.869c0 0 57.427-29.45 113-3.869" style="paint-order:fill markers stroke" transform="matrix(.39633 .02191 -.023 .41592 -168.03 -144.126)"/></g></svg>